<?xml version="1.0" standalone="no"?>
<!DOCTYPE svg PUBLIC "-//W3C//DTD SVG 20010904//EN"
 "http://www.w3.org/TR/2001/REC-SVG-20010904/DTD/svg10.dtd">
<svg version="1.0" xmlns="http://www.w3.org/2000/svg"
 width="4109.000000pt" height="833.000000pt" viewBox="0 0 4109.000000 833.000000"
 preserveAspectRatio="xMidYMid meet">

<g transform="translate(0.000000,833.000000) scale(0.100000,-0.100000)"
fill="#000000" stroke="none">
<path d="M2118 7471 c-31 -10 -76 -30 -100 -44 -58 -34 -140 -118 -172 -176
-60 -111 -56 108 -56 -3086 0 -2596 2 -2927 15 -2980 40 -153 162 -279 315
-326 64 -19 104 -19 3015 -17 l2950 3 78 37 c153 73 247 208 267 379 13 114
13 5694 0 5808 -20 171 -114 306 -267 379 l-78 37 -2955 2 c-2837 2 -2957 1
-3012 -16z m5213 -1142 c-66 -134 -212 -446 -326 -694 -538 -1168 -770 -1602
-1146 -2145 -198 -286 -300 -411 -474 -586 -269 -270 -484 -407 -790 -500 -85
-26 -101 -28 -280 -28 -164 0 -201 3 -267 21 -249 70 -475 227 -527 368 -44
116 -36 257 22 385 13 30 59 94 102 143 152 173 315 302 833 661 415 287 684
482 935 677 759 590 1428 1224 1952 1852 44 52 81 94 83 93 1 -2 -51 -113
-117 -247z m-407 -151 c-254 -284 -688 -700 -1074 -1029 -422 -360 -802 -644
-1674 -1250 -98 -68 -237 -171 -310 -228 -150 -119 -361 -326 -399 -392 -42
-71 -77 -176 -85 -253 l-8 -71 -26 50 c-36 70 -82 205 -104 305 -25 114 -26
384 -1 482 46 188 129 334 263 465 157 154 382 279 759 422 938 355 1616 728
2420 1332 116 87 224 169 240 183 43 36 43 32 -1 -16z"/>
<path d="M14573 7225 c-172 -28 -315 -54 -319 -58 -5 -5 -1214 -5008 -1214
-5024 0 -2 138 -2 307 -1 l306 3 342 1426 c188 784 345 1430 348 1436 22 35
281 95 481 113 80 7 158 7 240 0 270 -21 413 -104 506 -292 87 -178 92 -372
19 -713 -24 -107 -429 -1811 -464 -1948 l-7 -27 308 2 308 3 218 905 c291
1208 293 1218 292 1515 -1 146 -5 199 -23 283 -86 405 -267 614 -636 738 -156
52 -275 67 -500 61 -206 -5 -318 -22 -506 -78 -56 -16 -103 -28 -106 -26 -2 3
91 393 206 868 116 475 209 864 208 864 -1 1 -142 -22 -314 -50z"/>
<path d="M29481 7224 c-172 -29 -314 -54 -315 -56 -4 -5 -835 -3464 -867
-3608 -48 -214 -63 -332 -63 -515 0 -190 15 -293 64 -426 109 -300 366 -482
745 -528 132 -16 172 -15 177 7 3 9 33 120 68 245 34 125 61 230 59 232 -3 2
-49 13 -103 24 -117 24 -226 73 -280 127 -51 52 -101 158 -117 247 -19 114 -7
267 36 452 20 88 235 986 476 1995 242 1009 438 1840 437 1846 -2 6 -116 -9
-317 -42z"/>
<path d="M38552 7269 c-455 -38 -818 -239 -1052 -584 -104 -155 -185 -337
-259 -585 -22 -74 -214 -859 -425 -1745 -523 -2188 -551 -2303 -595 -2435 -96
-286 -210 -492 -457 -827 l-94 -128 72 -11 c40 -6 163 -24 272 -40 l199 -28
64 69 c179 195 333 418 429 620 108 228 169 436 319 1080 47 204 197 829 333
1390 l248 1020 577 3 577 2 5 23 c3 12 29 126 58 252 l53 230 -573 3 c-448 2
-573 5 -573 15 0 19 87 369 120 481 90 310 222 485 444 590 128 61 258 86 437
86 163 0 282 -18 417 -62 68 -22 125 -38 126 -36 12 14 235 482 232 485 -14
14 -220 75 -326 97 -205 42 -407 53 -628 35z"/>
<path d="M10255 6718 c-3 -7 -30 -121 -60 -253 -31 -132 -58 -248 -61 -257 -5
-17 32 -18 685 -18 546 0 691 -3 691 -12 0 -7 -218 -917 -483 -2023 l-483
-2010 315 -3 c173 -1 318 1 321 5 4 5 225 916 491 2025 l484 2018 692 0 c650
0 692 1 697 18 13 45 116 494 116 507 0 13 -201 15 -1700 15 -1351 0 -1702 -3
-1705 -12z"/>
<path d="M26755 5653 c-331 -39 -537 -109 -798 -271 -604 -373 -996 -1136
-1024 -1993 -9 -277 20 -460 105 -657 126 -292 394 -523 713 -616 167 -48 267
-60 509 -60 310 0 464 22 752 104 155 45 315 104 337 125 12 12 11 45 -8 232
-12 120 -24 234 -27 254 l-5 36 -62 -32 c-115 -61 -418 -150 -592 -175 -104
-14 -386 -12 -495 5 -282 42 -469 159 -559 348 -51 107 -65 189 -66 372 l0
150 125 7 c69 4 213 12 320 18 522 29 1044 137 1337 276 252 120 476 349 564
577 55 143 72 243 73 427 1 196 -11 254 -85 408 -124 256 -381 417 -739 461
-78 10 -306 13 -375 4z m245 -527 c175 -31 299 -128 341 -266 18 -61 21 -86
15 -154 -12 -160 -54 -259 -155 -368 -141 -153 -335 -244 -651 -308 -198 -40
-466 -65 -873 -83 l-58 -2 6 34 c25 134 154 423 260 582 79 119 221 270 332
353 244 183 523 258 783 212z"/>
<path d="M31535 5649 c-615 -75 -1138 -451 -1458 -1050 -147 -276 -257 -635
-299 -979 -7 -58 -12 -199 -12 -315 0 -179 3 -225 22 -312 89 -412 323 -694
699 -844 298 -120 801 -129 1233 -23 123 31 342 101 420 136 l55 25 -25 251
c-14 138 -28 254 -32 257 -4 4 -22 -2 -40 -13 -74 -45 -320 -124 -523 -167
-102 -22 -409 -31 -537 -16 -372 44 -593 210 -653 491 -18 81 -32 322 -22 362
7 25 7 25 154 32 299 14 482 27 643 47 541 67 940 187 1176 355 154 109 305
294 373 458 57 137 75 238 75 436 1 154 -2 184 -22 255 -93 321 -318 516 -687
597 -106 23 -412 33 -540 17z m284 -520 c224 -36 359 -169 369 -362 8 -169
-44 -311 -160 -433 -221 -232 -571 -335 -1273 -374 -303 -16 -305 -16 -305 -3
0 32 84 264 135 369 180 380 484 669 805 768 142 44 298 57 429 35z"/>
<path d="M21195 5635 c-279 -31 -660 -104 -870 -166 l-70 -21 -374 -1561
c-206 -859 -385 -1604 -397 -1655 l-22 -92 307 0 307 0 343 1428 c189 785 348
1441 353 1458 7 28 14 32 80 47 214 50 564 67 687 34 192 -52 308 -180 358
-392 22 -96 24 -353 4 -480 -26 -162 -97 -479 -287 -1270 -107 -445 -194 -813
-194 -817 0 -5 137 -8 304 -8 282 0 305 1 310 18 22 73 429 1791 445 1877 53
284 63 479 36 709 -15 121 -15 129 2 142 30 23 253 130 338 163 338 130 687
94 866 -89 96 -99 146 -236 156 -435 7 -141 -6 -246 -68 -533 -41 -191 -416
-1774 -435 -1834 -5 -17 14 -18 303 -18 l308 0 219 913 c255 1059 240 991 266
1192 47 362 12 683 -100 910 -127 257 -367 425 -684 480 -114 19 -351 19 -480
0 -271 -41 -587 -151 -814 -284 l-73 -42 -72 73 c-116 118 -254 197 -419 239
-70 18 -118 22 -298 25 -136 2 -259 -2 -335 -11z"/>
<path d="M35115 5644 c-543 -54 -989 -244 -1378 -587 -177 -156 -375 -422
-492 -662 -261 -533 -323 -1263 -146 -1720 88 -229 273 -429 486 -526 253
-114 643 -129 945 -34 139 44 394 190 514 296 l45 40 10 -38 c5 -21 15 -58 21
-83 16 -58 80 -219 91 -225 7 -5 459 57 516 70 l22 5 -20 58 c-79 229 -113
506 -90 750 16 176 50 326 331 1471 138 563 249 1025 247 1027 -14 14 -192 79
-270 99 -178 45 -297 58 -552 60 -132 2 -258 1 -280 -1z m268 -524 c54 -5 104
-13 111 -17 11 -6 -28 -179 -185 -828 -214 -883 -245 -1027 -255 -1192 l-6
-108 -67 -66 c-77 -76 -206 -174 -295 -224 -133 -74 -270 -107 -451 -108 -209
-2 -304 32 -422 148 -118 116 -173 259 -195 507 -14 149 -2 349 32 523 69 352
252 692 501 929 267 254 600 406 954 435 141 12 168 12 278 1z"/>
<path d="M16814 5433 c42 -903 167 -1743 397 -2667 53 -213 174 -649 184 -667
8 -11 -150 -193 -251 -288 -307 -290 -541 -393 -894 -393 -128 0 -155 3 -235
26 -49 15 -116 41 -147 58 -32 17 -61 29 -63 26 -8 -8 -205 -478 -205 -489 0
-16 137 -75 240 -103 182 -49 398 -56 630 -20 479 74 919 359 1306 844 554
696 984 1438 1424 2455 190 441 380 956 484 1313 l15 52 -319 0 -319 0 -11
-42 c-192 -735 -613 -1779 -993 -2458 -87 -155 -204 -351 -222 -369 -11 -11
-20 16 -54 159 -178 735 -312 1714 -336 2466 -3 98 -8 194 -11 212 l-5 32
-311 0 -311 0 7 -147z"/>
</g>
</svg>
